<svg xmlns="http://www.w3.org/2000/svg" viewBox="0 0 1200 675" role="img" aria-labelledby="title desc">
<title id="title">WBU, Windis und Wachau</title><desc id="desc">Illustration mit Wachau-Landschaft, Bogenziel, Marillen und drei Windhunden.</desc>
<defs><linearGradient id="sky" x1="0" y1="0" x2="0" y2="1"><stop offset="0" stop-color="#dff2ff"/><stop offset="1" stop-color="#fff0c9"/></linearGradient><linearGradient id="hill" x1="0" y1="0" x2="1" y2="1"><stop offset="0" stop-color="#527c53"/><stop offset="1" stop-color="#294e3b"/></linearGradient></defs>
<rect width="1200" height="675" fill="url(#sky)"/><path d="M0 300 C180 190 330 220 470 310 C610 395 760 180 1200 265 L1200 675 L0 675 Z" fill="#789765"/><path d="M0 355 C190 260 325 300 480 385 C650 475 810 285 1200 330 L1200 675 L0 675 Z" fill="url(#hill)"/><path d="M0 450 C250 410 360 505 570 455 C790 400 930 480 1200 430" fill="none" stroke="#8dc6d8" stroke-width="54" stroke-linecap="round"/><path d="M0 450 C250 410 360 505 570 455 C790 400 930 480 1200 430" fill="none" stroke="#dff6fb" stroke-width="12" stroke-linecap="round"/>
<g transform="translate(845 235)"><circle cx="0" cy="0" r="88" fill="#f8f4e8" stroke="#5f4b3b" stroke-width="10"/><circle r="64" fill="#2b7e8d"/><circle r="43" fill="#d9b33c"/><circle r="22" fill="#b74b3d"/><circle r="7" fill="#2b2b2b"/><path d="M-100 130 L-70 72 M100 130 L70 72" stroke="#5f4b3b" stroke-width="12" stroke-linecap="round"/></g>
<g fill="none" stroke="#6b3f25" stroke-width="10" stroke-linecap="round"><path d="M710 285 Q650 345 705 420"/><path d="M710 285 L700 420"/></g><g stroke="#6b3f25" stroke-width="5"><line x1="700" y1="420" x2="780" y2="350"/><polygon points="780,350 762,354 770,368" fill="#6b3f25"/></g>
<g transform="translate(140 78)"><path d="M0 75 Q75 -15 160 45 Q220 90 255 20" fill="none" stroke="#68452f" stroke-width="17"/><g fill="#f2a13b" stroke="#d87a22" stroke-width="3"><circle cx="46" cy="67" r="23"/><circle cx="96" cy="45" r="24"/><circle cx="148" cy="58" r="21"/><circle cx="202" cy="38" r="24"/></g><g fill="#4f7a3a"><ellipse cx="65" cy="28" rx="30" ry="12" transform="rotate(-25 65 28)"/><ellipse cx="165" cy="24" rx="32" ry="13" transform="rotate(20 165 24)"/></g></g>
<g transform="translate(190 485)"><g fill="#f2a13b" stroke="#d87a22" stroke-width="3"><circle cx="0" cy="0" r="30"/><circle cx="43" cy="8" r="27"/><circle cx="83" cy="-5" r="29"/><circle cx="122" cy="9" r="25"/></g></g>
<g transform="translate(390 485)"><ellipse cx="0" cy="75" rx="98" ry="36" fill="#9a6b47" opacity=".25"/><path d="M-60 74 Q-73 18 -38 -8 Q5 -38 40 -3 Q68 22 57 70 Q30 107 -15 105 Q-45 103 -60 74Z" fill="#c89a6d"/><path d="M-36 9 L-58 -12 L-31 -9 M30 2 L48 -19 L44 9" fill="#c89a6d"/><circle cx="-17" cy="30" r="5"/><circle cx="19" cy="28" r="5"/><path d="M-4 44 Q2 50 9 44" stroke="#563f32" stroke-width="4" fill="none"/></g>
<g transform="translate(590 470)"><ellipse cx="0" cy="85" rx="105" ry="38" fill="#9a6b47" opacity=".25"/><path d="M-62 82 Q-78 22 -42 -15 Q5 -44 45 -7 Q75 20 62 78 Q35 118 -16 116 Q-49 114 -62 82Z" fill="#ead6ad"/><path d="M-38 -4 L-61 -25 L-35 -21 M34 -1 L55 -25 L49 8" fill="#ead6ad"/><circle cx="-17" cy="31" r="5"/><circle cx="20" cy="28" r="5"/><path d="M-5 45 Q3 52 11 44" stroke="#563f32" stroke-width="4" fill="none"/></g>
<g transform="translate(790 500)"><ellipse cx="0" cy="70" rx="98" ry="36" fill="#9a6b47" opacity=".25"/><path d="M-60 70 Q-72 17 -38 -10 Q3 -39 41 -7 Q70 18 58 67 Q33 104 -13 104 Q-45 102 -60 70Z" fill="#676462"/><path d="M-36 -2 L-57 -25 L-33 -17 M31 -2 L51 -25 L46 6" fill="#676462"/><circle cx="-17" cy="27" r="5" fill="#f3d16e"/><circle cx="20" cy="25" r="5" fill="#f3d16e"/><path d="M-5 43 Q3 50 11 43" stroke="#2f2f2f" stroke-width="4" fill="none"/></g>
<g font-family="Arial,Helvetica,sans-serif" fill="#17372f"><text x="75" y="610" font-size="44" font-weight="800">WBU × Wilde Wachauer Windis</text><text x="78" y="645" font-size="24">Bogensport · Wachau · Marille · Erlebnispartner in Aggsbach Markt</text></g></svg>